<svg xmlns="http://www.w3.org/2000/svg" viewBox="0 0 40 40"><g fill="none" stroke="#545B64" stroke-width="2" stroke-linejoin="round" stroke-miterlimit="10"><path stroke-linecap="round" d="M34 36H6c-1.1 0-2-.9-2-2V6c0-1.1.9-2 2-2h28c1.1 0 2 .9 2 2v28c0 1.1-.9 2-2 2z"/><path stroke-linecap="round" d="M26 28H14c-1.1 0-2-.9-2-2V14c0-1.1.9-2 2-2h12c1.1 0 2 .9 2 2v12c0 1.1-.9 2-2 2z"/><path d="M20 0v4m6-4v4m6-4v4M14 0v4M8 0v4m12 32v4m6-4v4m6-4v4m-18-4v4m-6-4v4m32-20h-4m4 6h-4m4 6h-4m4-18h-4m4-6h-4M4 20H0m4 6H0m4 6H0m4-18H0m4-6H0"/></g></svg>