<svg xmlns="http://www.w3.org/2000/svg" viewBox="0 0 20 25"><g stroke="#545B64" fill="none"><path d="M4.5 1C5.328427 1 6 1.671573 6 2.5V4H3V2.5C3 1.671573 3.671573 1 4.5 1zm9 14.5h3v6h-3z"/><path d="M14 7h4c.552285 0 1 .447715 1 1v15c0 .552285-.447715 1-1 1H2c-.552285 0-1-.447715-1-1V8c0-.552285.447715-1 1-1h4V2.319092C6 1.996134 5.81962 1.556437 5.458862 1H13c.552285 0 1 .447715 1 1v5z"/><path d="M4.5 15.5h1v1h-1zm5 0h1v1h-1zm0 3h1v1h-1zm-5 0h1v1h-1zm5 3h1v1h-1zm-5 0h1v1h-1zM5.458862 1H13c.552285 0 1 .447715 1 1v6H6V2.319092C6 1.996134 5.81962 1.556437 5.458862 1zM3.5 9.5h13v4h-13z"/></g></svg>