<svg xmlns="http://www.w3.org/2000/svg" viewBox="0 0 40 40"><path fill="none" stroke="#545B64" stroke-width="2" stroke-linecap="round" stroke-linejoin="round" stroke-miterlimit="10" d="M37 11H3V7c0-2.2 1.8-4 4-4h26c2.2 0 4 1.8 4 4v4z"/><g fill="none" stroke="#545B64" stroke-width="2" stroke-linecap="round" stroke-linejoin="round" stroke-miterlimit="10"><path d="M6 11v5M34 11v5"/></g><circle fill="#545B64" cx="9" cy="7" r="1"/><path fill="none" stroke="#545B64" stroke-width="2" stroke-linecap="round" stroke-linejoin="round" stroke-miterlimit="10" d="M3 16h34v8H3z"/><g fill="none" stroke="#545B64" stroke-width="2" stroke-linecap="round" stroke-linejoin="round" stroke-miterlimit="10"><path d="M6 24v5M34 24v5"/></g><circle fill="#545B64" cx="9" cy="20" r="1"/><path fill="none" stroke="#545B64" stroke-width="2" stroke-linecap="round" stroke-linejoin="round" stroke-miterlimit="10" d="M33 37H7c-2.2 0-4-1.8-4-4v-4h34v4c0 2.2-1.8 4-4 4z"/><circle fill="#545B64" cx="9" cy="33" r="1"/></svg>