<svg xmlns="http://www.w3.org/2000/svg" viewBox="0 0 40 40"><g fill="none" stroke="#545B64" stroke-miterlimit="10"><path stroke-width="2" stroke-linecap="round" stroke-linejoin="round" d="M2.9 29V5.3c0-1 .9-1.9 1.9-1.9h30.4c1 0 1.9.9 1.9 1.9V10"/><path stroke-width="2" stroke-linejoin="round" d="M21.9 32.8H3.8L1 29h38"/><path stroke-width="2" d="M38 36.6H22.9c-.5 0-1-.4-1-1V11c0-.5.4-.9 1-.9H38c.5 0 1 .4 1 .9v24.7c0 .5-.4.9-1 .9zm-9.5-3.8h3.8"/><path stroke-width="1.951" stroke-linecap="round" stroke-linejoin="round" d="M21.9 13.8v-.9c0-2.5-2.4-4.8-4.9-4.8s-4.7 2.1-4.7 4.6c0 .6.1 1.1.3 1.6-.4-.1-.8-.2-1.2-.2-2.6 0-4.7 2.1-4.7 4.6s2.1 4.6 4.7 4.6h10.5m0 1.9h7.2c1.9 0 3.4-1.5 3.4-3.3s-1.5-3.3-3.4-3.3h-1.5v-.5c0-1.8-1.5-3.3-3.4-3.3-.8 0-1.5.3-2.1.7"/></g></svg>