<svg xmlns="http://www.w3.org/2000/svg" viewBox="0 0 40 40"><g fill="none" stroke="#545B64" stroke-width="2" stroke-miterlimit="10"><path stroke-linejoin="round" d="M16.1 18.8l-6.3 6.3c-1.8-.2-3.6.3-5 1.7-1.8 1.8-2.2 4.5-1.2 6.8l4-4c.8-.8 2-.8 2.8 0 .8.8.8 2 0 2.8l-4 4c2.2 1.1 4.9.7 6.8-1.2 1.4-1.4 1.9-3.2 1.7-5l5.1-5.1m5-5l5.2-5.2c1.8.2 3.6-.3 5-1.7 1.8-1.8 2.2-4.5 1.2-6.8l-4 4c-.8.8-2 .8-2.8 0-.8-.8-.8-2 0-2.8l4-4c-2.2-1.1-4.9-.7-6.8 1.2-1.4 1.4-1.9 3.2-1.7 5l-6.3 6.3"/><path d="M35.5 35l-.5.5c-1.3 1.3-3.3 1.3-4.6 0L19.2 24.3c-.8-.8-.8-2 0-2.8l2.3-2.3c.8-.8 2-.8 2.8 0l11.2 11.2c1.3 1.3 1.3 3.3 0 4.6z"/><path d="M21.7 19l-8.2-8.2c-.2-.2-.4-.5-.5-.8l-1.1-3.5c-.2-.5-.6-1-1.1-1.2L6.9 3.5c-.8-.4-1.7-.2-2.2.4l-.8.8c-.6.5-.8 1.4-.4 2.2l1.8 3.9c.2.5.7.9 1.2 1.1l4 1.3 8.6 8.5"/></g></svg>