<svg xmlns="http://www.w3.org/2000/svg" viewBox="0 0 40 40"><path fill="none" stroke="#545B64" stroke-width="2" stroke-linecap="round" stroke-linejoin="round" stroke-miterlimit="10" d="M8 7c0 1.5 1.3 3 3 3s3-1.5 3-3V5c0-1.5 1.3-3 3-3s3 1.5 3 3v10"/><circle fill="none" stroke="#545B64" stroke-width="2" stroke-linecap="round" stroke-linejoin="round" stroke-miterlimit="10" cx="32" cy="21" r="7"/><circle fill="none" stroke="#545B64" stroke-width="2" stroke-linecap="round" stroke-linejoin="round" stroke-miterlimit="10" cx="8" cy="21" r="7"/><path fill="none" stroke="#545B64" stroke-width="2" stroke-linecap="round" stroke-linejoin="round" stroke-miterlimit="10" d="M13 26h14m1-11H12"/><path fill="none" stroke="#545B64" stroke-width="2" stroke-linejoin="round" stroke-miterlimit="10" d="M5 21h6m-3-3v6"/><path fill="none" stroke="#545B64" stroke-width="2" stroke-linecap="round" stroke-linejoin="round" stroke-miterlimit="10" d="M1 21v13s0 4 4.1 4c4.2 0 6.3-7.9 8.2-12M39 21v13s0 4-4.1 4c-4.2 0-6.3-7.9-8.2-12"/><circle fill="#545B64" cx="32" cy="21" r="2"/></svg>