<svg xmlns="http://www.w3.org/2000/svg" viewBox="0 0 40 40"><path fill="none" stroke="#545B64" stroke-width="2" stroke-miterlimit="10" d="M22 36H3c-1.1 0-2-.9-2-2V3c0-1.1.9-2 2-2h23c1.1 0 2 .9 2 2v7"/><path fill="none" stroke="#545B64" stroke-width="2.126" stroke-linejoin="round" stroke-miterlimit="10" d="M24 10V5H5v26h34"/><path fill="none" stroke="#545B64" stroke-width="2" stroke-miterlimit="10" d="M38 39H23c-.6 0-1-.4-1-1V11c0-.6.4-1 1-1h15c.6 0 1 .4 1 1v27c0 .6-.4 1-1 1z"/><path fill="#545B64" d="M29 34h3v2h-3z"/></svg>