<svg xmlns="http://www.w3.org/2000/svg" viewBox="0 0 40 40"><g fill="none" stroke="#545B64" stroke-width="2" stroke-linejoin="round" stroke-miterlimit="10"><path d="M31.4 22.9c3.8 0 6.6-1.9 6.6-5.8 0-3.7-1.9-5.6-5.7-5.6 1.9-4.8-2.8-7.6-6.6-4.8 0-3.8-3.8-5.7-7.6-5.7-4.8 0-8.6 1.9-8.6 8.6-4.7 0-7.5 2.8-7.5 6.6 0 4.1 2.9 6.6 6.7 6.6h22.7zm-11.4 0v9.4"/><circle cx="19.5" cy="35.7" r="3.3"/><circle cx="8.1" cy="31.9" r="3.3"/><circle cx="31.9" cy="31.9" r="3.3"/><path d="M20 22.9l9.4 6.6M20 22.9l-9.4 6.6"/></g></svg>