<svg xmlns="http://www.w3.org/2000/svg" viewBox="0 0 40 40"><path fill="none" stroke="#545B64" stroke-width="2" stroke-linecap="round" stroke-linejoin="round" stroke-miterlimit="10" d="M16 18l4 4v14l-5 3-9-6v-5l-5-4v-8l5-4V6l8-5 6 4v9l5 5m-9 14l-5 3m-1-10l-4 2m0-10l-5 3M11 3v7"/><path fill="none" stroke="#545B64" stroke-width="2" stroke-linecap="round" stroke-linejoin="round" stroke-miterlimit="10" d="M6 12l5 3v6l-5 2m5-2l4 3v4m-4-13l4-2V7m5 19l-10 5M20 5l6-4 8 5v6l5 4v8l-5 4v5l-9 6-5-3"/><circle fill="#545B64" cx="25" cy="19" r="2"/><circle fill="#545B64" cx="26" cy="9" r="2"/><path fill="none" stroke="#545B64" stroke-width="2" stroke-linejoin="round" stroke-miterlimit="10" d="M26 9h8"/><circle fill="#545B64" cx="26" cy="30" r="2"/><path fill="none" stroke="#545B64" stroke-width="2" stroke-linejoin="round" stroke-miterlimit="10" d="M26 30h-6.1"/><circle fill="#545B64" cx="32" cy="21" r="2"/><path fill="none" stroke="#545B64" stroke-width="2" stroke-linejoin="round" stroke-miterlimit="10" d="M32 21l4 5"/></svg>