<svg xmlns="http://www.w3.org/2000/svg" viewBox="0 0 40 40"><g fill="none" stroke="#545B64" stroke-width="2" stroke-linejoin="round" stroke-miterlimit="10"><path d="M35.5 37h-31c-.8 0-1.5-.7-1.5-1.5v-31C3 3.7 3.7 3 4.5 3h31c.8 0 1.5.7 1.5 1.5v31c0 .8-.7 1.5-1.5 1.5z"/><path d="M20 20v-4s0-2-2-2h-1.1c-.6.9-1.7 1.5-2.9 1.5-1.9 0-3.5-1.6-3.5-3.5s1.6-3.5 3.5-3.5c1.2 0 2.2.6 2.9 1.5H18c2 0 2-2 2-2V3m0 17h-4s-2 0-2 2v1.1c.9.6 1.5 1.7 1.5 2.9 0 1.9-1.6 3.5-3.5 3.5S8.5 27.9 8.5 26c0-1.2.6-2.2 1.5-2.9V22c0-2-2-2-2-2H3m17 0v4s0 2 2 2h1.1c.6-.9 1.7-1.5 2.9-1.5 1.9 0 3.5 1.6 3.5 3.5s-1.6 3.5-3.5 3.5c-1.2 0-2.2-.6-2.9-1.5H22c-2 0-2 2-2 2v5m0-17h4s2 0 2-2v-1.1c-.9-.6-1.5-1.7-1.5-2.9 0-1.9 1.6-3.5 3.5-3.5s3.5 1.6 3.5 3.5c0 1.2-.6 2.2-1.5 2.9V18c0 2 2 2 2 2h5"/></g></svg>