<svg xmlns="http://www.w3.org/2000/svg" viewBox="0 0 40 40"><path fill="#545B64" d="M6 17c2.2 0 4 1.8 4 4s-1.8 4-4 4-4-1.8-4-4 1.8-4 4-4m0-2c-3.3 0-6 2.7-6 6s2.7 6 6 6 6-2.7 6-6-2.7-6-6-6zM20 2c2.2 0 4 1.8 4 4s-1.8 4-4 4-4-1.8-4-4 1.8-4 4-4m0-2c-3.3 0-6 2.7-6 6s2.7 6 6 6 6-2.7 6-6-2.7-6-6-6zm14 17c2.2 0 4 1.8 4 4s-1.8 4-4 4-4-1.8-4-4 1.8-4 4-4m0-2c-3.3 0-6 2.7-6 6s2.7 6 6 6 6-2.7 6-6-2.7-6-6-6z"/><path fill="none" stroke="#545B64" stroke-width="2" stroke-linejoin="round" stroke-miterlimit="10" d="M20 11v29m-6 0V21h-4m20 0h-4v19"/><path fill="none" stroke="#545B64" stroke-width="2" stroke-linecap="square" stroke-linejoin="round" stroke-miterlimit="10" d="M33.8 27A15 15 0 0 1 20 36c-6.2 0-11.4-3.7-13.8-9M26 7.2c3.5 1.5 6.2 4.3 7.8 7.8M6.2 15c1.5-3.5 4.3-6.2 7.8-7.8"/></svg>