<svg xmlns="http://www.w3.org/2000/svg" viewBox="0 0 40 40"><path fill="none" stroke="#545B64" stroke-width="2" stroke-linecap="round" stroke-linejoin="round" stroke-miterlimit="10" d="M17 29.5l1 1c0 3 1 5 2 5s2-2 2-5l1-1"/><path fill="none" stroke="#545B64" stroke-width="2" stroke-miterlimit="10" d="M18 14.5c0-5 4-5 4 0"/><circle fill="#545B64" stroke="#545B64" stroke-miterlimit="10" cx="20" cy="6.5" r="2"/><path fill="none" stroke="#545B64" stroke-width="2" stroke-miterlimit="10" d="M18 14.1S11 4.6 6.3 4.5C2 4.5 1 4.5 1 7.7v9.6s0 3.2 4.2 4.2S18 19.4 18 19.4v-5.3zm-8 7.4s-5 1-6 4 0 10 7 10 7-12 7-16"/><path fill="none" stroke="#545B64" stroke-width="2" stroke-linecap="round" stroke-linejoin="round" stroke-miterlimit="10" d="M12 16.5h6m-7 12l-5 5m.4-22.6L2 5.5"/><circle fill="#545B64" cx="11" cy="16.5" r="2"/><circle fill="#545B64" cx="7" cy="11.5" r="2"/><circle fill="#545B64" cx="11" cy="28.5" r="2"/><path fill="none" stroke="#545B64" stroke-width="2" stroke-miterlimit="10" d="M22 14.1s7-9.5 11.7-9.6c4.3 0 5.3 0 5.3 3.2v9.6s0 3.2-4.2 4.2S22 19.4 22 19.4v-5.3zm8 7.4s5 1 6 4 0 10-7 10-7-12-7-16"/><path fill="none" stroke="#545B64" stroke-width="2" stroke-linecap="round" stroke-linejoin="round" stroke-miterlimit="10" d="M28 16.5h-6m7 12l5 5m-.4-22.6L38 5.5"/><circle fill="#545B64" cx="29" cy="16.5" r="2"/><circle fill="#545B64" cx="33" cy="11.5" r="2"/><circle fill="#545B64" cx="29" cy="28.5" r="2"/><path fill="none" stroke="#545B64" stroke-width="2" stroke-miterlimit="10" d="M20 6.5v4"/></svg>